<?xml version="1.0" encoding="utf-8"?>
<!-- Generator: Adobe Illustrator 25.3.1, SVG Export Plug-In . SVG Version: 6.00 Build 0)  -->
<svg version="1.1" id="Layer_1" xmlns="http://www.w3.org/2000/svg" xmlns:xlink="http://www.w3.org/1999/xlink" x="0px" y="0px"
	 viewBox="0 0 1440 887" style="enable-background:new 0 0 1440 887;" xml:space="preserve">
<style type="text/css">
	.st0{opacity:0.38;fill:url(#SVGID_1_);stroke:#FFFFFF;stroke-width:0.55;stroke-miterlimit:10;enable-background:new    ;}
	.st1{opacity:0.38;fill:url(#SVGID_2_);stroke:#FFFFFF;stroke-width:0.55;stroke-miterlimit:10;enable-background:new    ;}
	.st2{opacity:0.4;}
	.st3{fill:#FFFFFF;}
	.st4{opacity:0.8;}
	.st5{opacity:0.6;}
	.st6{opacity:0.4;fill:none;stroke:#004D77;stroke-miterlimit:10;stroke-dasharray:9.82;enable-background:new    ;}
	.st7{fill:none;}
	.st8{fill:#001313;}
	.st9{clip-path:url(#XMLID_13_);}
	.st10{fill:#F1F1F1;}
	.st11{clip-path:url(#XMLID_14_);}
	.st12{fill:#000C0C;}
	.st13{fill:#001A1A;}
	.st14{clip-path:url(#XMLID_17_);}
	.st15{fill:#E99700;}
	.st16{fill:#FFBE3D;}
	.st17{clip-path:url(#XMLID_18_);}
	.st18{clip-path:url(#XMLID_19_);}
	.st19{fill:#FFA800;}
	.st20{opacity:0.5;fill:#FF4341;}
</style>
<g id="Layer_1_1_">
	
		<linearGradient id="SVGID_1_" gradientUnits="userSpaceOnUse" x1="-116.8768" y1="-11.035" x2="1126.7511" y2="-11.035" gradientTransform="matrix(0.9944 -0.1052 -0.1052 -0.9944 214.5835 540.4181)">
		<stop  offset="0" style="stop-color:#FFFFFF"/>
		<stop  offset="1" style="stop-color:#52C8EB"/>
	</linearGradient>
	<path class="st0" d="M217.2,267.1c-1.4-13.2,41.5-12.1,48.8-11.6c101.5,7.1,139.8-11.1,240.2-37.6C626,186.3,690,48.7,1077.6,58.1
		c104.8,2.5,6.9,179.8,26.6,247.2c39.9,136.5,309.2,227.6,244.3,396.4C1270.4,905,922.8,912.1,760.1,827.2
		c-98.4-51.4-176.4-135.1-282.4-172.8c-92.5-32.9-281-32.6-348.7-96.9c-86.8-82.4-16.4-244.3,75.2-295.5"/>
	
		<linearGradient id="SVGID_2_" gradientUnits="userSpaceOnUse" x1="52.4432" y1="505.37" x2="1223.9258" y2="505.37" gradientTransform="matrix(1 0 0 -1 0 885.8898)">
		<stop  offset="0" style="stop-color:#FFFFFF"/>
		<stop  offset="1" style="stop-color:#52C8EB"/>
	</linearGradient>
	<path class="st1" d="M1210.2,440.8c-12.6,53.6-28.9,110.4-26.2,153.6c5.8,93.7-87.9,124.8-165.4,128
		c-143.1,5.9-276.8-56.1-419-53.7c-23.5,0.5-46.9,3.3-69.9,8.5c-75.9,16.6-143.3,53.4-221.2,72.4c-58.1,14.2-202,30.4-217.8-53.5
		l-7.7-22.3c-0.2,0-0.2,0.1-0.3-0.2c-22-33.4-45.2-92.7-17.2-127.8c10-12.6,20.6-25.4,31.7-38.3c40.4-46.8,88.3-93.9,142.6-128.3
		c35.6-22.5,51.8-74.7,70.8-122.2c11.6-29.1,24.3-56.4,43.2-73.9C469.8,74.9,601.1,29,730.8,0h170.1c15.9,12,29.1,29,39.9,49.3
		c2.1,3.8,4.2,7.7,6.5,11.6c36,60.7,101.8,126.2,160.3,171.5c30.6,23.7,59.2,41.9,80.5,51C1237,304.4,1226.8,369.8,1210.2,440.8z"/>
	<g class="st2">
		<path class="st3" d="M1129.9,626.9c-6.5,20.7,5.6,39.2,25.7,41.4c12.2,1.3,29.4-0.3,35.8-9.7c10.6,15.4,29.9,14,45.5,14
			c13.6,0,20.5-5.8,29.2-15c13.6,8.6,21.7,20,37.8,20c37.8,0,49-20.2,53.5-46.4c3.6-20.7-19.3-49.2-53.9-44.3
			c-2.6,0.4-5.2,0.2-7.7,0.6c-6-22.8-20.8-27-44.6-33.4c-18.6-5-39.5,2-49.2,14.8c-4.7-0.7-9.5-1.1-14.3-1.2
			c-17,0-23.4,14.3-23.4,31.3c0,1.4,0.1,2.7,0.3,4.1c-0.9-0.1-1.7-0.1-2.6-0.1C1142.3,602.9,1134.2,613.3,1129.9,626.9z"/>
	</g>
	<g class="st4">
		<path class="st3" d="M1203.7,563.1c11.1,35.1-9.5,66.5-43.6,70.2c-20.6,2.2-49.8-0.5-60.7-16.4c-17.9,26.1-50.7,23.7-77.2,23.7
			c-23.1,0-34.8-9.9-49.6-25.4c-23,14.5-36.8,33.9-64.1,33.9c-64.1,0-83.1-34.3-90.7-78.6c-6-35.1,32.7-83.5,91.4-75
			c4.4,0.6,8.8,0.4,13.1,1c10.2-38.7,35.2-45.8,75.7-56.6c31.5-8.5,67,3.4,83.4,25.1c3.7-0.9,20.2-2.1,24.2-2.1
			c28.9,0,39.6,24.2,39.6,53c0,2.3-0.2,4.7-0.5,7c1.5-0.1,3-0.2,4.5-0.2C1182.7,522.5,1196.4,540.1,1203.7,563.1z"/>
	</g>
	<path class="st3" d="M414.5,511.9c8,25.2-6.8,47.7-31.2,50.3c-14.8,1.6-35.7-0.4-43.5-11.8c-12.9,18.7-36.3,17-55.4,17
		c-16.6,0-24.9-7.1-35.6-18.2c-16.5,10.4-26.4,24.3-46,24.3c-46,0-59.6-24.6-65.1-56.4c-4.3-25.2,23.4-59.9,65.5-53.8
		c3.2,0.5,6.4,0.3,9.4,0.8c7.3-27.8,25.3-32.8,54.3-40.6c22.5-6.1,48,2.5,59.8,18c2.7-0.6,14.5-1.5,17.4-1.5
		c20.7,0,28.4,17.3,28.4,38c0,1.7-0.1,3.3-0.3,5c1.1-0.1,2.1-0.1,3.2-0.1C399.4,482.8,409.3,495.5,414.5,511.9z"/>
	<g class="st5">
		<path class="st3" d="M243.6,433.2c-9.4,29.9,8.1,56.6,37.1,59.7c17.5,1.9,42.4-0.4,51.6-14c15.3,22.2,43.1,20.1,65.7,20.1
			c19.7,0,29.6-8.4,42.2-21.6c19.6,12.4,31.3,28.8,54.6,28.8c54.6,0,70.7-29.2,77.2-66.9c5.1-29.9-27.8-71-77.8-63.9
			c-3.8,0.5-7.5,0.3-11.2,0.9c-8.6-32.9-30-38.9-64.4-48.2c-26.8-7.2-57,2.9-71,21.3c-3.2-0.7-17.2-1.8-20.6-1.8
			c-24.6,0-33.7,20.6-33.7,45.1c0,2,0.1,4,0.4,5.9c-1.2-0.1-2.5-0.1-3.8-0.1C261.5,398.6,249.8,413.6,243.6,433.2z"/>
	</g>
	<path class="st6" d="M177.4,634.7c30.7,26.4,72.4,36.5,112.8,38.6c49,2.5,101.8-7.4,136.7-41.9s42.6-98.4,6.3-131.4
		c-10-9.1-28.5-13.8-35.2-2.1c-3.6,6.3-1.5,14.3,1.9,20.6c10.7,19.7,33.3,30.6,55.6,32.8s44.6-3,66.3-8.6
		c57.5-14.8,114.3-32.5,170-53.1c50-18.5,103.7-39.5,155-25.1c16,4.5,32.5,14.1,37.4,30s-5.1,34.9-20.9,40.4s-35-2.4-42.8-17.2
		c-13.2-24.9,7.2-56.6,33.3-67s55.5-6.3,83.6-4.6c34.7,2.1,69.4,0.3,103.7-5.4c23.3-3.9,47.1-10,65.3-25"/>
	<line class="st7" x1="1129.3" y1="396.3" x2="1128.6" y2="397"/>
</g>
<g>
	<g>
		<path class="st3" d="M1136.5,325.2c-2.5-1.7-5-3.5-7.7-4.9c-0.1-9.9,1.2-17.4,5.4-18.2c3.6-0.7,7.1-0.5,10.4,0.6
			c2.8,9.4,3.5,19.4,2.6,29.3c-0.1,1.3-0.3,2.6-0.4,3.9C1144.1,331.5,1140.8,328.2,1136.5,325.2z"/>
		<path class="st3" d="M1130.2,342.9c-0.7-7.3-1.3-14.9-1.4-21.5c2.3,1.3,4.4,2.7,6.5,4.2c4.8,3.2,8.4,6.7,11.3,11.7c0,0,0,0,0,0
			c-0.5,3.6-1.1,7.1-1.9,10.6C1140.6,345.1,1135.4,343.1,1130.2,342.9z"/>
		<path class="st3" d="M1135.8,356.2c-1.5-0.2-2.9-0.2-4.4-0.2c-0.3-3.8-0.7-8-1.1-12.2c5.1,0.3,10.3,2.3,14.3,5.1
			c-0.4,1.8-0.8,3.5-1.2,5.3c-0.4,1.5-0.7,2.9-1.1,4.4C1140.1,357.6,1138.2,356.5,1135.8,356.2z"/>
		<path class="st3" d="M1131.6,372.9c0.7-3,0.5-8.8-0.1-15.9c1.1,0,2.1,0,3.2,0.1c2.8,0.2,4.9,1.4,7.3,2.5
			c-1.5,5.6-3.2,11.1-5.8,16.2c-0.1,0.2-0.1,0.4,0,0.5C1133.4,378.6,1129.8,380.7,1131.6,372.9z"/>
		<path class="st3" d="M1156.6,327.1c-0.6,4.5-2.1,9.1-4.1,13.2c-1.8,3.8-4.3,8.3-7.6,11.1c1.5-6.4,2.6-12.9,3.2-19.4
			c0.8-9.7,0.2-19.6-2.5-28.9c3.4,1.4,6.6,4,9.4,7.6C1156.7,316,1157.3,321.6,1156.6,327.1z"/>
		<path class="st3" d="M1144.1,355.1c0.1-0.2,0.1-0.4,0.2-0.7c0.1-0.5,0.3-1.1,0.4-1.6c0,0,0,0,0,0c3.8-2.8,6.5-7.6,8.6-11.7
			c2.1-4.2,3.7-8.8,4.3-13.5c0.7-4.9,0.3-9.9-0.8-14.8c2.4,3.7,4.6,8.3,6.3,14c3.2,10.4-0.1,20.7-5.9,29.3
			C1153,354.5,1148.4,354,1144.1,355.1z"/>
		<path class="st3" d="M1142.9,359.7c0.3-1.2,0.6-2.4,0.9-3.6c4.2-1.2,8.7-0.8,12.8,0.8c-1.7,2.4-3.5,4.6-5.5,6.7
			C1148.7,361.6,1146,360,1142.9,359.7z"/>
		<path class="st3" d="M1141.7,364.1c0.3-1.1,0.7-2.3,1-3.5c2.9,0.2,5.6,1.7,7.8,3.6c-1.6,1.6-3.2,3.1-4.9,4.5
			C1144.6,367,1143.3,365.3,1141.7,364.1z"/>
		<path class="st3" d="M1141.4,365.1c1.4,1.2,2.6,2.7,3.5,4.3c-2,1.6-4.1,3.1-6.1,4.3c0,0-0.5,0.6-1.3,1.3
			C1139.1,371.8,1140.3,368.5,1141.4,365.1z"/>
	</g>
	<g>
		<path class="st3" d="M1101.8,326.3c1.3-2.9,2.7-5.9,4.5-8.6c-5.2-9.1-10.4-15.3-14.7-13.8c-3.7,1.3-6.8,3.3-9.2,6.1
			c2.4,10.1,7.1,19.7,13.2,28.3c0.8,1.1,1.6,2.2,2.4,3.3C1098.1,336.1,1099.4,331.3,1101.8,326.3z"/>
		<path class="st3" d="M1117,339.1c-3.3-7.1-6.7-14.3-10.2-20.5c-1.4,2.4-2.6,4.9-3.8,7.3c-2.6,5.5-4.1,10.6-4.1,16.8c0,0,0,0,0,0
			c2.3,3,4.8,5.9,7.4,8.7C1108.6,346.7,1112.4,342.1,1117,339.1z"/>
		<path class="st3" d="M1118.9,354.3c1.2-1,2.6-1.8,4-2.5c-1.7-3.7-3.6-7.7-5.5-11.8c-4.5,3-8.2,7.5-10.4,12.3
			c1.3,1.4,2.6,2.8,3.9,4.2c1.1,1.1,2.2,2.3,3.4,3.4C1115.7,357.9,1116.9,355.9,1118.9,354.3z"/>
		<path class="st3" d="M1131.7,367.4c-2.2-2.4-5.1-7.9-8.4-14.7c-1,0.5-2,1.1-2.9,1.8c-2.4,1.7-3.8,3.8-5.4,6.2
			c4.3,4.3,8.9,8.5,14,11.7c0.2,0.1,0.2,0.3,0.2,0.5C1133,373.6,1137.5,373.6,1131.7,367.4z"/>
		<path class="st3" d="M1084.3,338.7c3,3.9,6.8,7.2,10.8,9.9c3.7,2.5,8.3,5.3,12.8,6.1c-4.8-5.1-9.3-10.4-13.3-16.1
			c-6-8.5-10.6-17.8-13.1-27.8c-2.4,3.1-4,7.1-4.6,12C1078.3,328.6,1080.8,334.1,1084.3,338.7z"/>
		<path id="XMLID_1_" class="st3" d="M1110.7,357.7c-0.2-0.2-0.3-0.3-0.5-0.5c-0.4-0.4-0.8-0.9-1.2-1.3c0,0,0,0,0,0
			c-4.9-0.6-10-3.5-14.1-6.2c-4.2-2.7-8-6.1-11.1-10c-3.2-4.1-5.6-8.9-7.1-14c-0.3,4.7,0.2,10.1,1.7,16.2c2.6,11.3,11.1,19,21,23.8
			C1102.2,361.9,1106.2,359,1110.7,357.7z"/>
		<path class="st3" d="M1114.3,361.3c-0.9-0.9-1.8-1.9-2.8-2.8c-4.5,1.1-8.4,3.9-11.3,7.5c2.8,1.3,5.7,2.3,8.6,3.2
			C1109.9,366.1,1111.6,363.2,1114.3,361.3z"/>
		<path class="st3" d="M1117.8,364.7c-0.9-0.9-1.8-1.7-2.7-2.6c-2.6,1.8-4.2,4.5-5.2,7.5c2.3,0.6,4.6,1.1,6.8,1.5
			C1116.6,368.9,1116.9,366.7,1117.8,364.7z"/>
		<path class="st3" d="M1118.5,365.4c-0.7,1.8-1,3.8-1,5.8c2.7,0.4,5.4,0.7,7.8,0.7c0,0,0.8,0.3,1.9,0.5
			C1124.2,370.4,1121.3,368,1118.5,365.4z"/>
	</g>
	<g>
		<g>
			<path class="st8" d="M1164.6,315.2c-0.6-3.4-1.6-6.6-5.1-8c-3.1-1.2-6.5-0.5-9.2,1.4c-2.9,2.1-4.7,5.4-5.7,8.8
				c-1.2,4.2-1.7,8.7-2,13c-0.2,2.5-0.2,5-0.2,7.5c0,2.6,0,5.3,0.7,7.7c0.2,0.9,1.6,0.7,1.7-0.2c0.1-2.6-0.3-5.2-0.3-7.8
				c0-2.4,0-4.9,0.2-7.3c0.3-4.7,0.7-9.5,2.2-14c1.3-3.7,4.1-7.5,8.2-8.2c1.8-0.3,3.8,0.1,5.4,1.1c2,1.4,2.6,3.9,3.1,6.1
				C1163.6,316.2,1164.8,315.9,1164.6,315.2L1164.6,315.2z"/>
		</g>
	</g>
	<g>
		<g>
			<path class="st8" d="M1192.2,317.8c-0.6-3.4-1.6-6.6-5.1-8c-3.1-1.2-6.5-0.5-9.2,1.4c-2.9,2.1-4.7,5.4-5.7,8.8
				c-1.2,4.2-1.7,8.7-2,13c-0.2,2.5-0.2,5-0.2,7.5c0,2.6,0,5.3,0.7,7.7c0.2,0.9,1.6,0.7,1.7-0.2c0.1-2.6-0.3-5.2-0.3-7.8
				c0-2.4,0-4.9,0.2-7.3c0.3-4.7,0.7-9.5,2.2-14c1.3-3.7,4.1-7.5,8.2-8.2c1.8-0.3,3.8,0.1,5.4,1.1c2,1.4,2.6,3.9,3.1,6.1
				C1191.3,318.8,1192.4,318.5,1192.2,317.8L1192.2,317.8z"/>
		</g>
	</g>
	<g>
		<defs>
			<path id="XMLID_11_" d="M1166.2,423.1l2.1,16.8c0.1,1,0.8,1.9,1.8,2.4c1.9,0.8,5.2,1.9,9.1,1.9c3.9,0,7.3-1.1,9.1-1.9
				c1-0.4,1.6-1.3,1.8-2.4l2.1-16.8H1166.2z"/>
		</defs>
		<use xlink:href="#XMLID_11_"  style="overflow:visible;fill:#FFFFFF;"/>
		<clipPath id="XMLID_13_">
			<use xlink:href="#XMLID_11_"  style="overflow:visible;"/>
		</clipPath>
		<g class="st9">
			<g>
				<path class="st10" d="M1164.9,425.2c1.3,0.7,2.4,1.4,3.8,1.9c1.5,0.5,3,0.9,4.6,1.1c3.1,0.5,6.2,0.5,9.3,0.2
					c3.1-0.3,6.2-0.9,9.3-1.6c1.9-0.5,6.3-1.1,6.1-3.8c-0.1-0.9-1.2-1.6-1.9-0.8c-0.7,0.8-1.2,1.2-2.3,1.5c-1.3,0.4-2.6,0.7-4,1
					c-2.8,0.6-5.6,1.2-8.4,1.4c-2.6,0.2-5.2,0.2-7.8-0.2c-1.3-0.2-2.6-0.4-3.8-0.7c-1.3-0.3-2.9-0.6-4.1-1.1
					C1164.8,423.7,1164.1,424.8,1164.9,425.2L1164.9,425.2z"/>
			</g>
		</g>
		<g class="st9">
			<g>
				<path class="st10" d="M1165.7,423.7c-0.3,2.7,0.2,5.5,0.5,8.2c0.3,2.6,0.5,5.1,0.8,7.7c0.4,3.3,3.7,4.6,6.4,5.5
					c3.6,1.1,7.4,1.6,11.2,1.2c4.3-0.4,9.1-1.4,12.7-3.8c1.3-0.9,0.5-3.2-1.1-2.7c-2.2,0.7-4.3,1.7-6.5,2.3c-2.2,0.6-4.5,1-6.8,1
					c-3.7,0.1-8.2-0.4-11.5-2.4c-1.3-0.8-1.2-1.7-1.3-3.1c-0.2-1.5-0.3-3-0.5-4.6c-0.4-3.2-0.6-6.5-1.2-9.7
					C1168,421.7,1165.9,422.3,1165.7,423.7L1165.7,423.7z"/>
			</g>
		</g>
	</g>
	<path id="XMLID_10_" class="st3" d="M1165.2,417.6v5.2c0,0.7,0.4,1.4,1.1,1.7c1.8,0.8,5.9,2.1,12.9,2.1c7,0,11.1-1.3,12.9-2.1
		c0.7-0.3,1.1-0.9,1.1-1.7v-5.2H1165.2z"/>
	<g>
		<defs>
			<ellipse id="XMLID_9_" cx="1179.2" cy="417.6" rx="14" ry="3.9"/>
		</defs>
		<use xlink:href="#XMLID_9_"  style="overflow:visible;fill:#FFFFFF;"/>
		<clipPath id="XMLID_14_">
			<use xlink:href="#XMLID_9_"  style="overflow:visible;"/>
		</clipPath>
		<g class="st11">
			<g>
				<path class="st10" d="M1168.3,422.4c1.1-1.8,2.3-3.4,4.4-4.1c2.3-0.7,4.5,0.7,6.8,0.5c1.2-0.1,2.3-0.6,3.4-0.9
					c1.3-0.4,2.6-0.5,3.9-0.4c1,0,2.4,0.3,3.1,1.2c0.8,0.9,0.5,2.4,0.1,3.4c-0.2,0.5,0.4,1.2,0.9,0.7c1.4-1.7,0.7-4.4-0.8-5.8
					c-2.1-1.9-6.3-0.9-8.8-0.2c-0.9,0.2-1.8,0.5-2.8,0.4c-0.9-0.1-1.7-0.3-2.5-0.5c-1.3-0.3-2.5-0.3-3.8,0.1
					c-2.3,0.7-4.7,2.8-5.3,5.2C1166.8,422.6,1167.9,423.1,1168.3,422.4L1168.3,422.4z"/>
			</g>
		</g>
	</g>
	<path class="st12" d="M1191,415.5c0.1,0,0.2,0.1,0.3,0.2c0,0,0-0.1,0-0.1c0-1.8,0-8.2-3.5-11.2c-2.1-1.8-5.1-2.5-8.8-1.9
		c-10.8,1.5-12.3,10.9-12.3,19.8c0,0.6,0.4,1,1,1s1-0.4,1-1c0-11.6,3.1-16.8,10.6-17.8c3.1-0.4,5.6,0,7.2,1.5
		c1.8,1.6,2.7,5.1,2.8,9.1C1189.7,415,1190.8,415.4,1191,415.5z"/>
	<path class="st13" d="M1181,379c1.4-0.2,9.9,13.6,7.8,21.5c-2.1,7.8-7.6,6.6-7,0.3c0.6-6.2,3-7.7-0.6-16
		C1179.7,381.2,1179.4,379.2,1181,379z"/>
	<g>
		<defs>
			<path id="XMLID_7_" d="M1141.3,404.9c-1.2,0.2,0.6,5.7-1,7.9c-1.6,2.2-4.5,4.4-3.2,6.1c1.7,2.2,4.9-2,5.5-7.6
				C1143.1,406.8,1142.7,404.7,1141.3,404.9z"/>
		</defs>
		<use xlink:href="#XMLID_7_"  style="overflow:visible;fill:#001A1A;"/>
		<clipPath id="XMLID_15_">
			<use xlink:href="#XMLID_7_"  style="overflow:visible;"/>
		</clipPath>
	</g>
	<g>
		<defs>
			<path id="XMLID_8_" d="M1152.7,403.7c-1.2,0.2,0.6,5.7-1,7.9c-1.6,2.2-4.5,4.4-3.2,6.1c1.7,2.2,4.9-2,5.5-7.6
				C1154.4,405.6,1154,403.5,1152.7,403.7z"/>
		</defs>
		<use xlink:href="#XMLID_8_"  style="overflow:visible;fill:#001A1A;"/>
		<clipPath id="XMLID_16_">
			<use xlink:href="#XMLID_8_"  style="overflow:visible;"/>
		</clipPath>
	</g>
	<g>
		<defs>
			<path id="XMLID_2_" d="M1109.3,404.7c-4.8-7.4-2.5-19.8,11-30.1c13.5-10.3,10.1-37.4,39.1-40.3c29-2.9,40.2,9.7,37.7,26.9
				s-17.6,39.6-33.4,46C1147.8,413.7,1119,419.8,1109.3,404.7z"/>
		</defs>
		<use xlink:href="#XMLID_2_"  style="overflow:visible;fill:#FFB200;"/>
		<clipPath id="XMLID_17_">
			<use xlink:href="#XMLID_2_"  style="overflow:visible;"/>
		</clipPath>
		<g class="st14">
			<g>
				<path class="st15" d="M1108.9,412c1.6,7.5,11.2,8.6,17.5,8.3c9.3-0.4,19-2.1,27.6-5.6c4.8-2,9.6-4.2,13.7-7.4
					c4.4-3.4,7.5-7.4,10.8-11.8c3-3.9,6.2-7.3,10.7-9.4c4.5-2.1,9.4-2,14.1-3.3c6.6-1.8,5.6-10.2,0-12.4c-8.4-3.3-19.1,0.7-26.1,5.7
					c-8.1,5.8-12.9,14.9-19.8,21.9c-3.4,3.4-6.8,6.5-11.2,8.5c-4,1.8-8.6,2.4-12.9,3.2c-7.3,1.3-14.7,2-21.8-0.5
					C1110,408.7,1108.6,410.4,1108.9,412L1108.9,412z"/>
			</g>
		</g>
		<g class="st14">
			<g>
				<path class="st15" d="M1175.9,403.8c4.7-3.7,9.6-7.3,14.5-10.8c4.2-3,11.1-8.7,6.1-14.2c-4.9-5.3-11.8,0.8-15.7,4.2
					c-4.6,4-8.7,8.5-12.6,13C1163.4,401.5,1170.4,408.2,1175.9,403.8L1175.9,403.8z"/>
			</g>
		</g>
		<g class="st14">
			<g>
				<path class="st15" d="M1139.8,409c-8.6-0.2-15.3-6.8-19.4-13.8c-2.1-3.5-3.5-7.4-4.3-11.4c-0.4-1.9-0.5-3.9-0.5-5.8
					c0-2,0.6-4.1,0.6-6.1c0-0.9-1.3-1.3-1.7-0.5c-1.6,2.8-1.5,6.9-1.2,10.1c0.3,3.4,1.2,6.8,2.5,10c2.6,6.2,6.8,12.4,12.5,16.1
					c3.5,2.3,7.3,3.4,11.5,3.1C1140.8,410.5,1140.8,409,1139.8,409L1139.8,409z"/>
			</g>
		</g>
		<g class="st14">
			<g>
				<path class="st15" d="M1165.8,392.8c-1.5-0.7-3.4-0.6-5.1-0.8c-2-0.3-4-0.6-5.9-1.1c-3.7-0.9-7.3-2.2-10.7-4
					c-3.4-1.8-6.1-4.1-8.2-7.4c-2-3.1-3.6-6.5-4.9-9.9c-0.7-2-1.4-4.1-1.8-6.1c-0.5-2.1-0.7-4.2-1.4-6.2c-0.4-1.1-1.9-0.9-2,0.3
					c-0.2,2,0.3,4.1,0.7,6c0.4,1.9,1,3.9,1.6,5.7c1.3,3.8,3,7.5,5.1,10.9c2.1,3.3,4.6,6.1,8,8.1c3.5,2,7.4,3.6,11.3,4.6
					c2.1,0.6,4.3,1,6.5,1.3c2.1,0.3,4.7,0.8,6.7-0.1C1166.3,393.8,1166.2,393,1165.8,392.8L1165.8,392.8z"/>
			</g>
		</g>
		<g class="st14">
			<g>
				<path class="st15" d="M1118.5,407.3c0.2,0.4,0.5,0.9,0.7,1.3c0.1,0.3,0.2,0.3,0.2,0.5c0.1,0.2,0.2,0.5,0.2,0.7
					c0.3,1,0.3,1.7,0.3,2.8c0,0.3,0,0.6,0,0.8c0.1,0.4,0.5,0.8,1,0.7c0.8-0.1,1-1,1.1-1.7c0.1-1,0-2.2-0.3-3.2
					c-0.4-1.2-0.9-2.3-1.8-3.2C1119.1,405.5,1118,406.4,1118.5,407.3L1118.5,407.3z"/>
			</g>
		</g>
		<g class="st14">
			<g>
				<path class="st15" d="M1153.8,394.1c0.9,0,1.7,0.8,2.3,1.3c0.8,0.6,1.7,1.2,2.5,1.8c0.9,0.6,1.7,1.2,2.6,1.8
					c0.5,0.3,0.9,0.6,1.4,0.9c0.5,0.3,0.9,0.7,1.5,0.9c0.8,0.2,1.8-0.8,1.2-1.6c-0.7-0.9-1.9-1.5-2.8-2.1c-1-0.7-2-1.3-2.9-2
					c-0.9-0.6-1.9-1.2-2.8-1.8c-0.9-0.5-1.9-0.9-2.9-0.8C1152.7,392.6,1152.7,394.1,1153.8,394.1L1153.8,394.1z"/>
			</g>
		</g>
		<g class="st14">
			<g>
				<path class="st15" d="M1158.2,395.6c0.6,0.3,1.3,0.5,1.9,0.8c0.3,0.1,0.6,0.3,1,0.4c0.3,0.1,0.7,0.3,1,0.4
					c0.5,0.1,1-0.1,1.2-0.6c0.2-0.4,0-1-0.4-1.2c-0.4-0.2-0.8-0.3-1.2-0.5c-0.3-0.1-0.6-0.2-1-0.3c-0.7-0.2-1.3-0.5-2-0.7
					c-0.4-0.2-1,0.2-1.1,0.6C1157.4,395,1157.7,395.4,1158.2,395.6L1158.2,395.6z"/>
			</g>
		</g>
		<g class="st14">
			<g>
				<path class="st15" d="M1132.3,408.6c0.7,0,0.7-1.1,0-1.1C1131.5,407.5,1131.5,408.6,1132.3,408.6L1132.3,408.6z"/>
			</g>
		</g>
		<g class="st14">
			<g>
				<path class="st15" d="M1130.2,406.5c0.1,1.5,0.2,3,0.2,4.5c0,0.7,0,1.4-0.1,2.1c0,0.3-0.1,0.7-0.1,1c-0.1,0.4-0.2,0.8-0.1,1.2
					c0.2,0.5,0.7,0.8,1.2,0.5c0.7-0.5,0.9-1.6,1-2.4c0.1-0.7,0.1-1.5,0-2.2c-0.1-1.6-0.4-3.1-0.6-4.7c-0.1-0.4-0.3-0.8-0.8-0.8
					C1130.6,405.7,1130.2,406.1,1130.2,406.5L1130.2,406.5z"/>
			</g>
		</g>
		<g class="st14">
			<g>
				<path class="st13" d="M1183.9,388c1.1,0.1,2.2,0.2,3.4,0.3c0.5,0.1,1,0.1,1.5,0.2c0.3,0,0.6,0.1,0.9,0.1
					c0.5,0.1,0.8,0.1,1.2-0.3c0.3-0.3,0.3-0.7,0.1-1c-0.4-0.7-1.3-0.6-2-0.7c-0.6-0.1-1.1-0.1-1.7-0.1c-1.1-0.1-2.3-0.1-3.4-0.2
					c-0.5,0-0.8,0.4-0.8,0.8C1183.1,387.6,1183.5,388,1183.9,388L1183.9,388z"/>
			</g>
		</g>
		<g class="st14">
			<g>
				<path class="st13" d="M1183.6,388.5c1,0.1,2.1,0.1,3.1,0.2c0.5,0,1,0.1,1.5,0.1c0.6,0,1.4,0.2,1.8-0.3c0.3-0.3,0.3-0.8,0-1.1
					c-0.4-0.5-1.3-0.4-1.8-0.4c-0.5,0-1,0-1.5-0.1c-1,0-2.1-0.1-3.1-0.1c-0.5,0-0.8,0.4-0.8,0.8
					C1182.7,388.1,1183.1,388.5,1183.6,388.5L1183.6,388.5z"/>
			</g>
		</g>
		<g class="st14">
			<g>
				<path class="st13" d="M1183.2,388.4c0.8,0.1,1.6,0.3,2.4,0.4c0.4,0.1,0.8,0.1,1.2,0.2c0.4,0.1,0.9,0.2,1.4,0.2
					c0.4,0,0.8-0.3,0.9-0.8c0.1-0.5-0.2-0.8-0.6-1c-0.4-0.1-0.8-0.2-1.2-0.2c-0.4-0.1-0.8-0.1-1.2-0.2c-0.8-0.1-1.6-0.2-2.4-0.3
					c-0.4-0.1-0.9,0.1-1,0.6C1182.5,387.8,1182.8,388.3,1183.2,388.4L1183.2,388.4z"/>
			</g>
		</g>
		<g class="st14">
			<g>
				<path class="st13" d="M1182.6,388.8c0.9,0.1,1.8,0.2,2.7,0.4c0.5,0.1,0.9,0.1,1.4,0.2c0.5,0.1,1.1,0.2,1.5,0.1
					c0.7-0.2,0.9-1.2,0.2-1.6c-0.4-0.3-1.1-0.2-1.6-0.3c-0.5,0-0.9-0.1-1.4-0.1c-0.9-0.1-1.8-0.1-2.8-0.2c-0.4,0-0.8,0.4-0.8,0.8
					C1181.8,388.4,1182.2,388.7,1182.6,388.8L1182.6,388.8z"/>
			</g>
		</g>
		<g class="st14">
			<g>
				<path class="st13" d="M1181.8,388.8c0.9,0.1,1.8,0.1,2.7,0.2c0.4,0,0.9,0.1,1.3,0.1c0.4,0,0.9,0.1,1.4,0.1
					c0.5,0,0.8-0.3,0.9-0.8c0.1-0.4-0.2-0.9-0.6-1c-0.5-0.1-1-0.1-1.5-0.1c-0.5,0-0.9,0-1.4,0c-0.9,0-1.8-0.1-2.7-0.1
					c-0.4,0-0.8,0.4-0.8,0.8C1181,388.5,1181.3,388.7,1181.8,388.8L1181.8,388.8z"/>
			</g>
		</g>
		<g class="st14">
			<g>
				<path class="st13" d="M1183.1,389.3c0.6,0,1.3,0,1.9,0.1c0.6,0,1.3,0.1,1.9,0c0.4,0,0.9-0.4,0.9-0.9c0-0.5-0.4-0.8-0.9-0.9
					c-0.6,0-1.3,0-1.9,0c-0.6,0-1.3,0-1.9,0.1c-0.4,0-0.8,0.3-0.8,0.8C1182.3,388.9,1182.7,389.3,1183.1,389.3L1183.1,389.3z"/>
			</g>
		</g>
		<g class="st14">
			<g>
				<path class="st13" d="M1183.1,389.6c0.7,0,1.3,0,2,0.1c0.3,0,0.7,0,1,0c0.4,0,0.8,0,1.1,0c0.4-0.1,0.6-0.5,0.6-0.8
					c0-0.3-0.3-0.8-0.6-0.8s-0.7,0-1.1,0c-0.3,0-0.7,0-1,0c-0.7,0-1.3,0-2,0.1c-0.4,0-0.8,0.3-0.7,0.7
					C1182.4,389.3,1182.7,389.6,1183.1,389.6L1183.1,389.6z"/>
			</g>
		</g>
		<g class="st14">
			<g>
				<path class="st13" d="M1184.1,389.4c0.5-0.1,1.1-0.2,1.6-0.3c0.3,0,0.5-0.1,0.8-0.1c0.3-0.1,0.6-0.1,0.8-0.2
					c0.4-0.1,0.6-0.4,0.5-0.8c0-0.4-0.4-0.7-0.7-0.7c-0.3,0-0.7,0.1-1,0.2c-0.3,0.1-0.5,0.1-0.8,0.2c-0.6,0.1-1.1,0.2-1.7,0.4
					c-0.4,0.1-0.6,0.5-0.5,0.9C1183.3,389.3,1183.7,389.5,1184.1,389.4L1184.1,389.4z"/>
			</g>
		</g>
		<g class="st14">
			<g>
				<path class="st13" d="M1185.8,386c0.6,0,1.2-0.1,1.8-0.1c0.3,0,0.6,0,0.9-0.1c0.4,0,0.8,0,1.2-0.2c0.3-0.2,0.4-0.5,0.4-0.8
					c0-0.3-0.3-0.6-0.6-0.7c-0.3-0.1-0.7,0-1,0c-0.3,0-0.6,0.1-0.9,0.1c-0.6,0.1-1.2,0.1-1.8,0.2c-0.4,0-0.9,0.4-0.8,0.8
					C1184.9,385.6,1185.3,386.1,1185.8,386L1185.8,386z"/>
			</g>
		</g>
		<g class="st14">
			<g>
				<path class="st13" d="M1186.1,384.1c0.6,0,1.2,0.1,1.8,0.1c0.3,0,0.6,0,0.9,0c0.3,0,0.6,0.1,0.9,0c0.4,0,0.8-0.3,0.9-0.8
					c0.1-0.4-0.2-0.9-0.6-1c-0.7-0.1-1.3-0.1-2-0.1c-0.6,0-1.2,0-1.8-0.1c-0.5,0-0.9,0.4-0.9,0.9
					C1185.2,383.7,1185.6,384,1186.1,384.1L1186.1,384.1z"/>
			</g>
		</g>
		<g class="st14">
			<g>
				<path class="st13" d="M1187.3,382.7c0.5,0,1,0,1.5,0c0.2,0,0.5,0,0.8,0c0.1,0,0.2,0,0.4,0c0.3,0,0.5-0.1,0.7-0.2
					c0.5-0.2,0.5-1.2,0-1.4c-0.2-0.1-0.4-0.2-0.7-0.2c-0.1,0-0.3,0-0.4,0c-0.2,0-0.5,0-0.8,0c-0.5,0-1,0-1.5,0
					c-0.5,0-0.9,0.4-0.9,0.9C1186.4,382.3,1186.8,382.7,1187.3,382.7L1187.3,382.7z"/>
			</g>
		</g>
		<g class="st14">
			<g>
				<path class="st13" d="M1189.1,381.8c0.3,0,0.7,0,1,0c0.2,0,0.3,0,0.5,0c0.3,0,0.6,0,0.8-0.1c0.5-0.3,0.5-1.1,0-1.4
					c-0.3-0.1-0.5-0.1-0.8-0.1c-0.2,0-0.3,0-0.5,0c-0.3,0-0.7,0-1,0c-0.2,0-0.4,0.1-0.6,0.2c-0.1,0.1-0.3,0.4-0.2,0.6
					C1188.3,381.5,1188.6,381.8,1189.1,381.8L1189.1,381.8z"/>
			</g>
		</g>
		<g class="st14">
			<g>
				<path class="st13" d="M1189.1,382c1.3,0,1.3-2,0-2C1187.8,380,1187.8,382,1189.1,382L1189.1,382z"/>
			</g>
		</g>
		<g class="st14">
			<g>
				<path class="st13" d="M1190,381.5c0.1-0.1,0.2-0.1,0.3-0.2c-0.1,0-0.1,0.1-0.2,0.1c0.2-0.1,0.4-0.1,0.6-0.2c-0.1,0-0.1,0-0.2,0
					c0.1,0,0.2,0,0.3,0c0.3,0,0.6-0.1,0.8-0.3c0.1-0.1,0.2-0.3,0.2-0.4c0-0.3-0.2-0.5-0.4-0.6c-0.2-0.1-0.4-0.1-0.6-0.1
					c-0.5,0-1.1,0.2-1.5,0.4c-0.2,0.1-0.3,0.3-0.3,0.5c0,0.2,0,0.4,0.1,0.6c0.1,0.2,0.3,0.3,0.5,0.3
					C1189.6,381.6,1189.8,381.6,1190,381.5L1190,381.5z"/>
			</g>
		</g>
		<g class="st14">
			<g>
				<path class="st13" d="M1190.8,380.7c0.9,0,0.9-1.4,0-1.4C1189.9,379.3,1189.9,380.7,1190.8,380.7L1190.8,380.7z"/>
			</g>
		</g>
		<g class="st14">
			<g>
				<path class="st13" d="M1190.9,380.5c0.1,0,0.2-0.1,0.2-0.1c0,0,0.1,0,0.1,0c0,0,0,0,0.1,0c0.1,0,0.2-0.1,0.3-0.2c0,0,0,0,0,0
					c0.1-0.1,0.1-0.2,0.2-0.3c0-0.1,0-0.3,0-0.4c0-0.1-0.1-0.2-0.2-0.3c-0.1-0.1-0.2-0.1-0.3-0.2c0,0,0,0,0,0c0,0,0,0,0,0
					c-0.1,0-0.2,0-0.3,0c-0.1,0-0.1,0-0.2,0c0,0-0.1,0-0.1,0c-0.1,0-0.2,0-0.2,0.1c-0.1,0-0.2,0.1-0.3,0.1c-0.1,0.1-0.1,0.1-0.2,0.2
					c-0.1,0.1-0.1,0.2-0.1,0.3c0,0.1,0,0.2,0,0.3c0,0.1,0.1,0.1,0.1,0.2c0.1,0.1,0.2,0.2,0.3,0.3c0.1,0,0.1,0.1,0.2,0.1
					C1190.7,380.6,1190.8,380.6,1190.9,380.5L1190.9,380.5z"/>
			</g>
		</g>
		<g class="st14">
			<g>
				<path class="st13" d="M1191.1,380.1c0,0,0.1,0,0.1,0c0.1,0,0.3,0,0.4-0.1c0.1-0.1,0.2-0.1,0.3-0.3c0,0,0-0.1,0-0.1
					c0-0.1,0.1-0.2,0.1-0.3c0-0.1,0-0.1,0-0.2c0-0.1,0-0.1-0.1-0.2c-0.1-0.1-0.1-0.2-0.3-0.3c-0.1-0.1-0.2-0.1-0.4-0.1
					c0,0-0.1,0-0.1,0c-0.1,0-0.2,0-0.3,0.1c-0.1,0-0.2,0.1-0.2,0.2c-0.1,0.1-0.1,0.1-0.2,0.2c0,0.1-0.1,0.2-0.1,0.3
					c0,0.1,0,0.1,0,0.2c0,0.1,0.1,0.2,0.2,0.3c0,0,0.1,0.1,0.1,0.1C1190.8,380,1191,380.1,1191.1,380.1L1191.1,380.1z"/>
			</g>
		</g>
		<g class="st14">
			<g>
				<path class="st13" d="M1160.5,408.9C1160.5,408.9,1160.4,408.9,1160.5,408.9c-0.1-0.1-0.1-0.1-0.1-0.1c0,0,0,0,0,0
					c-0.1-0.1-0.1-0.1-0.2-0.1c0,0,0,0,0,0c-0.1,0-0.2,0-0.3,0c-0.1,0-0.2,0.1-0.2,0.1c-0.1,0.1-0.1,0.1-0.1,0.2c0,0.1,0,0.2,0,0.3
					c0,0,0,0,0,0c0.1,0.1,0,0.1,0.1,0.2c0,0,0,0,0,0c0,0,0,0,0,0c0,0,0.1,0.1,0.1,0.1c0.1,0.1,0.1,0.1,0.2,0.1c0.1,0,0.1,0.1,0.2,0
					c0.1,0,0.2,0,0.2,0c0.1,0,0.1-0.1,0.2-0.1c0,0,0.1-0.1,0.1-0.1c0.1-0.1,0.1-0.2,0.1-0.3c0-0.1,0-0.1,0-0.2
					C1160.6,409.1,1160.6,409,1160.5,408.9L1160.5,408.9z"/>
			</g>
		</g>
		<g class="st14">
			<g>
				<path class="st13" d="M1156.4,409.1c1.6,0.4,3.2,0.9,4.7,1.6c0.2-0.5,0.5-1.1,0.7-1.6c-2.1-0.4-4.2-0.9-6.3-1.4
					c-0.2,0.6-0.3,1.2-0.5,1.8c1.4,0.2,2.7,0.7,4,1.3c0.3-0.6,0.5-1.2,0.8-1.8c-1.8-0.5-3.6-0.8-5.5-1.1c-0.5-0.1-0.9,0.4-1,0.9
					c-0.1,0.5,0.2,0.9,0.7,1.1c0.9,0.4,1.9,0.7,2.8,0.9c0.1-0.7,0.2-1.3,0.3-2c-0.3,0-0.6-0.2-0.8-0.3c-0.2,0.6-0.3,1.2-0.5,1.9
					c1.5,0,2.9,0,4.4-0.1c0.9,0,1.5-1.4,0.5-1.9c-1-0.4-2-0.9-3-1.3c-0.2,0.6-0.3,1.3-0.5,1.9c2.3,0.2,4.6,0.4,6.9,0.7
					c0.9,0.1,1.4-1.2,0.7-1.8c-0.9-0.7-1.9-1.3-3-1.7c-0.1,0.7-0.2,1.4-0.3,2.1c0.8,0.1,1.6,0.1,2.4,0.2c1,0.1,1.3-1.2,0.8-1.8
					c-0.3-0.3-0.6-0.7-0.9-1c-0.3,0.6-0.5,1.2-0.8,1.8c0.9,0.1,1.8,0.1,2.7,0.1c0.5,0,1.1-0.5,1.1-1.1c-0.1-0.6-0.2-1-0.6-1.4
					c-0.2,0.6-0.3,1.2-0.5,1.8c0.5-0.1,1-0.1,1.5-0.1c0.6,0,1-0.5,1-1c0-0.6-0.5-1-1-1c-0.7-0.1-1.4,0-2.1,0.1
					c-0.9,0.2-0.9,1.2-0.5,1.8c0,0,0,0,0-0.1c0.4-0.4,0.7-0.7,1.1-1.1c-0.9,0-1.8,0-2.7-0.1c-1-0.1-1.3,1.2-0.8,1.8
					c0.3,0.3,0.6,0.7,0.9,1c0.3-0.6,0.5-1.2,0.8-1.8c-0.8-0.1-1.6-0.1-2.4-0.2c-1.3-0.1-1.3,1.7-0.3,2.1c0.7,0.3,1.5,0.7,2.1,1.1
					c0.2-0.6,0.5-1.2,0.7-1.8c-2.3-0.2-4.6-0.4-6.9-0.6c-1-0.1-1.4,1.5-0.5,1.9c1,0.4,2,0.9,3,1.3c0.2-0.6,0.3-1.3,0.5-1.9
					c-1.5,0-2.9,0.1-4.4,0.1c-1,0-1.3,1.3-0.5,1.9c0.6,0.4,1.2,0.5,1.8,0.6c1.1,0.1,1.3-1.7,0.3-2c-1-0.2-1.9-0.6-2.8-0.9
					c-0.1,0.7-0.2,1.3-0.3,2c1.7,0.2,3.3,0.6,5,1c1,0.3,1.8-1.3,0.8-1.8c-1.4-0.7-2.9-1.2-4.5-1.4c-1.1-0.2-1.7,1.5-0.5,1.8
					c2.1,0.5,4.2,1,6.3,1.3c0.4,0.1,0.9-0.1,1.1-0.5c0.2-0.4,0-0.9-0.4-1.1c-1.7-0.8-3.5-1.3-5.4-1.5
					C1155.8,407.6,1155.6,408.9,1156.4,409.1L1156.4,409.1z"/>
			</g>
		</g>
		<g class="st14">
			<g>
				<path class="st16" d="M1112.6,408.5c-2.4-4.6-3.1-9.7-3.2-14.9c0-2.7,0.6-5.1,1.5-7.6c0.9-2.5,2.2-4.9,2.9-7.4
					c0.4-1.6-1.6-2.3-2.5-1.1c-1.5,2.2-2.4,5.2-3.3,7.7c-1,2.9-1.5,5.6-1.5,8.7c0.1,2.7,0.2,5.5,0.9,8.1c0.7,2.8,1.8,5.3,3.2,7.7
					C1111.3,411,1113.3,409.8,1112.6,408.5L1112.6,408.5z"/>
			</g>
		</g>
		<g class="st14">
			<g>
				<path class="st16" d="M1124.2,366.4c-0.4,1.9-1,3.8-1.9,5.6c-0.4,0.9-0.9,1.7-1.5,2.5c-0.6,0.9-1.5,1.7-1.8,2.7
					c-0.3,1,0.8,1.7,1.7,1.3c1-0.4,1.7-1.6,2.3-2.5c0.6-0.9,1.2-1.8,1.6-2.8c1-2,1.6-4,1.9-6.2c0.1-0.6-0.2-1.3-0.8-1.5
					C1125,365.3,1124.3,365.7,1124.2,366.4L1124.2,366.4z"/>
			</g>
		</g>
		<g class="st14">
			<g>
				<path class="st16" d="M1133.8,356.6c2.3-4.4,4.9-8.7,8.6-12.2c3.2-3.1,7.1-5.5,11.2-7.2c9.3-3.9,19.5-4.4,29.4-3.5
					c6.4,0.6,12.7,1.9,19.1,2.8c2,0.3,3-2.7,0.9-3.1c-5.8-1.3-11.8-2.2-17.7-2.8c-5.8-0.6-11.7-0.8-17.6-0.2
					c-9.4,1-18.8,4.3-26,10.7c-4.4,3.9-7.4,8.9-9.8,14.2C1131.1,356.8,1133.1,358,1133.8,356.6L1133.8,356.6z"/>
			</g>
		</g>
	</g>
	<g>
		<defs>
			<path id="XMLID_4_" d="M1156.8,380.7c-13.8-3.4-20.6-13.8-22.5-29.5c-2.2,4.1-3.9,8.4-5.9,12.4c2.7,14.5,10.9,24.1,24,27.3
				c11.1,2.8,23.2,2,31.9-1.4c2.7-3.6,5.1-7.5,7-11.4C1182.6,382.5,1169.2,383.8,1156.8,380.7z"/>
		</defs>
		<use xlink:href="#XMLID_4_"  style="overflow:visible;fill:#001A1A;"/>
		<clipPath id="XMLID_18_">
			<use xlink:href="#XMLID_4_"  style="overflow:visible;"/>
		</clipPath>
		<g class="st17">
			<g>
				<path class="st12" d="M1190.7,383.3c-9.6,4.1-20.1,6.5-30.5,5.3c-4.8-0.6-9.6-2-13.9-4.3c-4.5-2.4-7.6-5.9-10.3-10.2
					c-2.9-4.6-6-10.1-4.7-15.8c0.7-3.1-4.1-4.5-4.8-1.3c-1.4,6.1,0.7,12,3.7,17.2c2.8,4.9,6.1,9.6,10.8,12.8
					c9.5,6.5,21.8,7.9,33,6.4c6.7-0.9,13.1-3,19.2-5.7c1.2-0.5,1.5-2.4,0.9-3.4C1193.4,382.9,1191.9,382.8,1190.7,383.3
					L1190.7,383.3z"/>
			</g>
		</g>
	</g>
	<g>
		<defs>
			<path id="XMLID_3_" d="M1134.9,397.4c-7-4.1-12.2-13.1-11.8-25.3c-0.8,0.9-1.7,1.8-2.7,2.5c-2,1.5-3.7,3.1-5.2,4.6
				c-0.1,12.3,6.6,22.5,13.8,26.4c6.6,3.5,16.7,5.3,26.4,4.5c3-0.9,5.8-1.9,8.3-2.9c3.5-1.4,6.9-3.6,10.2-6.3
				C1162,407.4,1141,401,1134.9,397.4z"/>
		</defs>
		<use xlink:href="#XMLID_3_"  style="overflow:visible;fill:#001A1A;"/>
		<clipPath id="XMLID_19_">
			<use xlink:href="#XMLID_3_"  style="overflow:visible;"/>
		</clipPath>
		<g class="st18">
			<g>
				<path class="st12" d="M1113.1,372.3c-0.7,6.3,0.1,12.8,2.3,18.8c1.1,2.8,2.4,5.5,4.3,7.8c1.9,2.3,4.4,4.3,6.9,5.9
					c10.3,6.8,23.2,8.6,35.3,7.7c3.7-0.3,7.3-0.7,10.9-1.3c3.2-0.6,6.2-1.7,8.6-3.9c2.4-2.2-1.2-5.7-3.5-3.5
					c-1.7,1.6-4.1,2.2-6.4,2.6c-2.8,0.5-5.6,0.8-8.4,1.1c-5.8,0.5-11.7,0.5-17.4-0.5c-9.6-1.7-20.9-6.4-25-15.9
					c-2.5-5.9-3.3-12.4-2.6-18.7c0.1-1.3-1.3-2.5-2.5-2.5C1114.2,369.8,1113.3,370.9,1113.1,372.3L1113.1,372.3z"/>
			</g>
		</g>
	</g>
	<g>
		<defs>
			<path id="XMLID_5_" d="M1118.3,405.3c-1.5,0.2,0.8,7.1-1.2,9.9s-5.6,5.6-4.1,7.6c2.1,2.8,6.2-2.5,6.9-9.5
				C1120.6,407.7,1120,405,1118.3,405.3z"/>
		</defs>
		<use xlink:href="#XMLID_5_"  style="overflow:visible;fill:#001A1A;"/>
		<clipPath id="XMLID_20_">
			<use xlink:href="#XMLID_5_"  style="overflow:visible;"/>
		</clipPath>
	</g>
	<g>
		<defs>
			<path id="XMLID_6_" d="M1132.5,403.7c-1.5,0.2,0.8,7.1-1.2,9.9s-5.6,5.6-4.1,7.6c2.1,2.8,6.2-2.5,6.9-9.5
				C1134.8,406.1,1134.3,403.5,1132.5,403.7z"/>
		</defs>
		<use xlink:href="#XMLID_6_"  style="overflow:visible;fill:#001A1A;"/>
		<clipPath id="XMLID_21_">
			<use xlink:href="#XMLID_6_"  style="overflow:visible;"/>
		</clipPath>
	</g>
	<path class="st13" d="M1151.8,393c-0.8,1.2,8.5,14.6,16.5,15.8c8,1.3,9.1-4.3,3.1-6.3c-6-2-8.2-0.4-14.4-7
		C1154.4,392.7,1152.7,391.7,1151.8,393z"/>
	<path class="st19" d="M1169.4,420.3c2-3.9,9.2-2.9,11.3-2.8c2.1,0.1,9.1-3.1,11.1,1.6c-1.8,1.3-5.8,1.7-5.8,1.7l-5.3,0.4
		c-1.1,0.1-2.1,0.1-3.2,0l-2.6-0.2c-1-0.1-2-0.2-3.1-0.4L1169.4,420.3z"/>
	<ellipse class="st20" cx="1157.1" cy="356.4" rx="5.2" ry="2.6"/>
	<path class="st20" d="M1193.6,348c0.3,0.8,1.4,1.2,2.8,1.2c-0.4-1.3-1-2.6-1.7-3.8C1193.7,346.3,1193.3,347.2,1193.6,348z"/>
	<g>
		<g>
			<path class="st8" d="M1171.1,355.6c3.3,0.9,6.9,1.4,10.3,0.9c1.6-0.2,3.2-0.8,4.6-1.6c1.3-0.7,3-1.6,3.8-2.8
				c0.3-0.5-0.2-1.1-0.7-0.9c-1.3,0.4-2.4,1.6-3.6,2.2c-1.4,0.8-2.8,1.4-4.4,1.6c-3.2,0.4-6.6,0.1-9.7-0.6
				C1170.7,354.2,1170.3,355.4,1171.1,355.6L1171.1,355.6z"/>
		</g>
	</g>
	<g>
		<g>
			<path class="st8" d="M1157.6,347.8c1-0.9,2.3-1.4,3.6-1.5c0.7-0.1,1.3,0,1.9,0.1c0.7,0.2,1.9,0.8,2.2-0.2c0.1-0.3,0-0.6-0.2-0.8
				c-0.6-0.5-1.6-0.7-2.4-0.8c-0.7-0.1-1.5-0.1-2.2,0.1c-1.5,0.2-2.8,1.1-3.9,2.1C1156,347.5,1156.9,348.4,1157.6,347.8
				L1157.6,347.8z"/>
		</g>
	</g>
	<g>
		<g>
			<path class="st8" d="M1190.6,342.9c-1.1-1-2.5-1.8-3.9-2c-0.8-0.1-1.5-0.1-2.3,0c-0.7,0.1-1.7,0.3-2.2,0.8
				c-0.2,0.2-0.3,0.5-0.2,0.8c0.3,1.1,1.5,0.4,2.2,0.2c0.6-0.2,1.3-0.2,2-0.2c1.3,0.1,2.6,0.5,3.6,1.3
				C1190.3,344.4,1191.3,343.5,1190.6,342.9L1190.6,342.9z"/>
		</g>
	</g>
	<g>
		<g>
			<path class="st19" d="M1179.9,435.3c0.1,0,0.1-0.1,0.2-0.1C1179.9,435.2,1179.9,435.2,1179.9,435.3
				C1179.8,435.3,1179.8,435.3,1179.9,435.3c-0.1,0-0.2,0-0.3,0c0,0,0,0,0,0c0,0,0,0,0,0C1179.7,435.3,1179.7,435.3,1179.9,435.3
				C1179.9,435.2,1179.9,435.2,1179.9,435.3c0.2-0.1,0.3-0.2,0.4-0.3c0,0,0,0,0,0c0,0,0,0,0.1,0c0,0,0,0,0.1,0
				c0.1-0.1,0.1-0.2,0.2-0.2c0-0.1,0.1-0.1,0.1-0.2c0-0.1,0-0.2,0-0.4c0-0.1,0-0.2-0.1-0.2c0-0.1-0.1-0.2-0.2-0.3
				c-0.1,0-0.1-0.1-0.2-0.1c-0.1,0-0.1-0.1-0.2-0.1c-0.1,0-0.2,0-0.4,0c-0.1,0-0.2,0-0.3,0.1c0,0,0,0,0,0c0,0,0,0,0,0
				c-0.1,0-0.1,0.1-0.2,0.1c0,0,0,0,0,0c0,0,0,0,0,0.1c0,0,0,0,0,0.1c0,0,0,0,0,0c0,0.1-0.1,0.1-0.1,0.2c0,0.1-0.1,0.1-0.1,0.2
				c0,0.1,0,0.2,0,0.3c0-0.1,0-0.2,0-0.2c0,0,0,0,0,0c0-0.1,0.1-0.1,0.1-0.2c0,0.1-0.1,0.1-0.1,0.2c0,0.1-0.1,0.1-0.1,0.2
				c0,0.1,0,0.2,0,0.3c0,0.1,0,0.2,0.1,0.2c0,0.1,0.1,0.2,0.2,0.3c0.1,0,0.1,0.1,0.2,0.1c0.1,0,0.1,0.1,0.2,0.1c0.1,0,0.2,0,0.3,0
				C1179.7,435.4,1179.8,435.3,1179.9,435.3L1179.9,435.3z"/>
		</g>
	</g>
	<g>
		<g>
			<path class="st19" d="M1185.1,435.8c0.2,0,0.3,0,0.5-0.1c0.2-0.1,0.3-0.1,0.4-0.3c0.1-0.1,0.2-0.2,0.3-0.4
				c0.1-0.1,0.1-0.3,0.1-0.5c0-0.1,0-0.2,0-0.3c-0.1-0.2-0.2-0.4-0.3-0.6c-0.1-0.1-0.2-0.1-0.3-0.2c-0.2-0.1-0.4-0.2-0.6-0.2
				c-0.2,0-0.3,0-0.5,0.1c-0.2,0.1-0.3,0.1-0.4,0.3c-0.1,0.1-0.2,0.2-0.3,0.4c-0.1,0.1-0.1,0.3-0.1,0.5c0,0.1,0,0.2,0,0.3
				c0.1,0.2,0.2,0.4,0.3,0.6c0.1,0.1,0.2,0.1,0.3,0.2C1184.6,435.7,1184.9,435.8,1185.1,435.8L1185.1,435.8z"/>
		</g>
	</g>
	<g>
		<g>
			<path class="st19" d="M1183.8,425.6c1,0,1-1.6,0-1.6C1182.7,424.1,1182.7,425.6,1183.8,425.6L1183.8,425.6z"/>
		</g>
	</g>
	<g>
		<g>
			<path class="st19" d="M1173.9,454.5C1173.9,454.5,1173.9,454.6,1173.9,454.5C1173.9,454.6,1173.9,454.6,1173.9,454.5
				c0.1,0.2,0.1,0.3,0.2,0.4c0,0,0,0,0,0c0,0,0,0,0,0.1c0.1,0.1,0.1,0.2,0.2,0.3c0,0,0,0,0,0c-0.1-0.4-0.2-0.8-0.3-1.2c0,0,0,0,0,0
				c0-0.1,0.1-0.2,0.1-0.3c0,0,0,0,0,0C1174,454,1174,454.2,1173.9,454.5c0.1,0.1,0.1,0.2,0.2,0.4c0.1,0.2,0.1,0.3,0.3,0.4
				c0.2,0.2,0.3,0.3,0.6,0.3c0,0,0,0,0.1,0c0.1,0,0.1,0,0.2,0c0.1,0,0.1,0,0.2,0c0,0,0,0,0,0c0,0,0,0,0,0c0,0,0.3,0,0.3,0
				c0.1,0,0.2-0.1,0.3-0.1c0,0,0,0,0.1-0.1c0.1-0.1,0.2-0.1,0.2-0.2c0,0,0.1-0.1,0.1-0.1c-0.2,0.2-0.5,0.3-0.7,0.5c0,0,0,0,0.1,0
				c0,0,0.1,0,0.1-0.1c0,0,0.1,0,0.1-0.1c0.1-0.1,0.1-0.1,0.2-0.2c0.1-0.1,0.1-0.1,0.2-0.2c0-0.1,0.1-0.2,0.1-0.3c0,0,0,0,0,0
				c0,0,0,0,0,0c0-0.1,0-0.2,0-0.3c0-0.1,0-0.2,0-0.3c0-0.1-0.1-0.2-0.1-0.2c-0.1-0.1-0.1-0.2-0.2-0.2c0.1,0.1,0.1,0.1,0.2,0.2
				c-0.1-0.1-0.1-0.2-0.2-0.2c-0.1-0.1-0.1-0.1-0.2-0.2c-0.1-0.1-0.2-0.1-0.3-0.1c0,0,0,0,0,0c0.1,0,0.2,0.1,0.3,0.1c0,0,0,0,0,0
				c0.2,0.3,0.4,0.7,0.6,1c0-0.1,0-0.2,0-0.3c0-0.1-0.1-0.2-0.1-0.3c0,0,0,0,0,0c-0.1-0.1-0.1-0.2-0.2-0.3c0,0,0,0-0.1-0.1
				c0.1,0.1,0.1,0.2,0.2,0.3c0,0,0,0,0,0c-0.1-0.2-0.3-0.3-0.5-0.5c-0.1-0.1-0.3-0.1-0.5-0.2c-0.2,0-0.3,0-0.5,0
				c-0.2,0.1-0.4,0.2-0.6,0.3c0,0,0,0,0,0c0.2-0.1,0.4-0.2,0.6-0.3c0,0,0,0,0,0c0.3,0,0.6,0.1,1,0.1c0,0,0,0,0,0
				c0.1,0.1,0.2,0.1,0.3,0.2c0,0-0.1,0-0.1-0.1c0.1,0.1,0.1,0.2,0.2,0.3c0,0,0-0.1-0.1-0.1c0,0.1,0.1,0.2,0.1,0.3c0,0,0,0,0,0
				c0-0.2-0.1-0.3-0.2-0.4c-0.1-0.1-0.2-0.2-0.3-0.3c-0.1-0.1-0.3-0.1-0.5-0.1c-0.2,0-0.3,0-0.5,0c-0.1,0-0.2,0.1-0.3,0.1
				c-0.2,0.1-0.3,0.3-0.4,0.4c0,0.1-0.1,0.2-0.1,0.3C1173.8,454.1,1173.8,454.3,1173.9,454.5L1173.9,454.5z"/>
		</g>
	</g>
	<g>
		<g>
			<path class="st19" d="M1179.1,457.1c1.1,0,1.1-1.8,0-1.8C1178,455.3,1177.9,457.1,1179.1,457.1L1179.1,457.1z"/>
		</g>
	</g>
	<g>
		<g>
			<path class="st19" d="M1176.4,460.2c0.9,0,0.9-1.4,0-1.4C1175.5,458.8,1175.5,460.2,1176.4,460.2L1176.4,460.2z"/>
		</g>
	</g>
	<g>
		<g>
			<path class="st19" d="M1162.6,497.3C1162.6,497.4,1162.5,497.4,1162.6,497.3c-0.1,0.2-0.1,0.3-0.2,0.4c0,0,0,0,0,0.1
				c0,0.1,0,0.2,0,0.3c0-0.1,0-0.2,0-0.3c-0.1,0.2-0.1,0.5,0,0.7c0-0.3,0.1-0.6,0.1-0.8c0,0,0,0,0,0.1c-0.1,0.2-0.2,0.4-0.2,0.7
				c0,0.2,0.1,0.5,0.2,0.7c0.1,0.2,0.3,0.4,0.5,0.5c0.2,0.1,0.4,0.2,0.7,0.2c0,0,0.1,0,0.1,0c0,0,0,0,0.1,0c0,0,0.3,0,0.3,0
				c0.1,0-0.1,0.1,0.2-0.1c0.1,0,0.2-0.1,0.3-0.2c0,0,0.1-0.1,0.1-0.1c0,0,0.1-0.1,0.1-0.1c0,0,0.1-0.1,0.1-0.1
				c-0.2,0.2-0.5,0.3-0.7,0.5c0,0,0,0,0.1,0c0.1,0,0.2-0.1,0.3-0.1c0,0,0,0,0,0c0,0,0.1-0.1,0.1-0.1c0.1-0.1,0.1-0.1,0.2-0.2
				c0.1-0.1,0.1-0.1,0.1-0.2c0-0.1,0.1-0.2,0.1-0.3c0.1-0.6,0-0.1,0-0.1c0,0,0,0,0,0c0,0,0-0.3,0-0.3c0,0,0,0,0,0
				c0,0-0.1-0.2-0.1-0.2c0,0,0,0,0,0c0,0,0,0,0,0c-0.1-0.1-0.1-0.1-0.2-0.2c-0.1-0.1-0.1-0.1-0.2-0.2c0,0-0.2-0.1-0.3-0.1
				c0,0,0,0,0,0c0,0,0,0-0.1,0c0.1,0,0.2,0.1,0.3,0.1c0,0,0,0,0,0c0.2,0.2,0.3,0.5,0.5,0.7c0-0.2-0.2-0.4-0.3-0.6c0,0,0,0,0,0
				c0.1,0.1,0.1,0.2,0.2,0.3c0,0,0,0,0-0.1c0,0.1,0.1,0.2,0.1,0.3c0,0,0,0,0,0c-0.1-0.2-0.2-0.4-0.3-0.6c-0.1-0.1-0.3-0.2-0.4-0.3
				c-0.2-0.1-0.3-0.1-0.5-0.1c-0.2,0-0.5,0.1-0.7,0.2c0,0,0,0,0,0c0.5,0.1,1,0.3,1.5,0.4c0,0,0,0,0-0.1c0-0.1,0-0.1-0.1-0.1
				c0-0.1-0.1-0.1-0.1-0.1c0.1,0.1,0.1,0.1,0.2,0.2c0,0,0,0,0,0c0,0.1,0.1,0.2,0.1,0.2c0,0,0-0.1,0-0.1c0,0.1,0,0.2,0,0.3
				c0,0,0-0.1,0-0.1c0,0.1,0,0.2,0,0.3c0,0,0,0,0-0.1c0-0.1,0-0.3,0-0.4c0-0.1,0-0.3-0.1-0.4c-0.1-0.1-0.1-0.1-0.2-0.2
				c-0.1-0.1-0.2-0.2-0.3-0.2c-0.1,0-0.2-0.1-0.3-0.1c-0.1,0-0.3,0-0.4,0c-0.1,0-0.2,0.1-0.2,0.1
				C1162.8,497.1,1162.7,497.2,1162.6,497.3L1162.6,497.3z"/>
		</g>
	</g>
	<g>
		<g>
			<path class="st19" d="M1168.3,503.7C1168.3,503.8,1168.3,503.8,1168.3,503.7c0,0.2,0.1,0.3,0.1,0.3c0,0,0,0,0,0.1c0,0,0,0,0,0
				c0.1,0.1,0.1,0.2,0.3,0.3c0.1,0.1,0.2,0.1,0.4,0.1c0.1,0,0.2,0,0.4-0.1c0.1-0.1,0.2-0.1,0.3-0.3c0,0,0,0,0,0c0,0,0,0,0-0.1
				c0.1-0.1,0.1-0.2,0.1-0.3c0,0,0-0.1,0-0.1c0-0.1,0-0.3,0-0.4c0-0.1-0.1-0.3-0.2-0.4c-0.1,0-0.1-0.1-0.2-0.1
				c-0.1-0.1-0.3-0.1-0.4-0.1c-0.1,0-0.2,0-0.3,0.1c-0.1,0-0.2,0.1-0.3,0.2c-0.1,0.1-0.2,0.2-0.2,0.4
				C1168.3,503.4,1168.3,503.6,1168.3,503.7L1168.3,503.7z"/>
		</g>
	</g>
	<g>
		<g>
			<path class="st19" d="M1166.6,508.4C1166.6,508.4,1166.6,508.4,1166.6,508.4c0,0.1,0,0.1,0,0.1c0,0,0,0.1,0.1,0.1
				c0,0,0,0.1,0.1,0.1c0,0,0,0,0,0c0,0,0,0,0,0.1c0.1,0.1,0.1,0.2,0.2,0.2c0.1,0.1,0.2,0.1,0.3,0.1c0.1,0,0.2,0,0.3-0.1
				c0.1-0.1,0.2-0.1,0.2-0.2c0,0,0,0,0-0.1c0,0,0,0,0,0c0,0,0-0.1,0.1-0.1c0,0,0-0.1,0.1-0.1c0,0,0,0,0,0c0,0,0-0.1,0-0.1
				c0-0.1,0-0.3,0-0.4c0-0.1-0.1-0.3-0.2-0.4c-0.1,0-0.1-0.1-0.2-0.1c-0.1-0.1-0.3-0.1-0.4-0.1c-0.1,0-0.2,0-0.3,0.1
				c-0.1,0-0.2,0.1-0.3,0.2c-0.1,0.1-0.2,0.2-0.2,0.4C1166.6,508.1,1166.6,508.2,1166.6,508.4L1166.6,508.4z"/>
		</g>
	</g>
	<g>
		<g>
			<path class="st19" d="M1134.4,483.3C1134.4,483.3,1134.4,483.3,1134.4,483.3c-0.1,0-0.2,0-0.3,0c0,0,0.1,0,0.1,0
				c-0.1,0-0.2,0-0.3,0c0,0,0.1,0,0.1,0c-0.2-0.1-0.4-0.2-0.5-0.3c0.1,0.1,0.2,0.2,0.3,0.2c0.1,0,0.2,0.1,0.3,0.1c0,0,0,0,0,0
				c0,0,0,0,0.1,0c-0.1,0-0.2-0.1-0.3-0.1c0,0,0.1,0,0.1,0.1c-0.1-0.1-0.2-0.1-0.2-0.2c0,0,0,0,0,0c0,0,0,0,0,0c0,0,0,0,0,0
				c0.1,0.1,0.2,0.2,0.4,0.3c0.2,0.1,0.1,0.1,0.3,0.1c0.1,0,0.1,0,0.2,0c0,0,0,0,0,0c-0.1,0-0.2,0-0.3,0c0,0,0.1,0,0.1,0
				c0.1,0,0.3,0.1,0.4,0c0.1,0,0.3-0.1,0.4-0.1c0.1-0.1,0.2-0.1,0.2-0.2c0.1-0.1,0.2-0.3,0.3-0.5c0,0,0,0,0,0c0-0.1,0-0.2,0-0.3
				c0,0,0,0,0-0.1c0,0,0,0,0,0c0,0,0-0.3,0-0.3c0-0.1,0-0.1-0.1-0.2c0-0.1-0.1-0.2-0.2-0.3c-0.1-0.1-0.1-0.1-0.1-0.1
				c-0.1-0.1-0.2-0.1-0.3-0.2c0,0,0,0-0.1,0c0,0,0,0,0,0c-0.1,0-0.2-0.1-0.3-0.1c0,0,0,0-0.1,0c0,0,0,0,0,0c-0.1,0-0.1,0-0.2,0
				c-0.1,0-0.2,0-0.3,0c-0.2,0-0.1,0-0.3,0.1c-0.1,0-0.1,0-0.2,0.1c0.2-0.1,0.4-0.1,0.6-0.2c-0.1,0-0.3,0-0.4,0.1c0,0,0,0-0.1,0
				c-0.1,0-0.2,0.1-0.3,0.1c-0.1,0.1-0.2,0.2-0.3,0.3c-0.1,0.1-0.2,0.2-0.2,0.4c0,0.1,0,0.2,0,0.3c0,0.2,0,0.3,0.1,0.5
				c0,0.1,0.1,0.2,0.2,0.3c0.1,0.1,0.2,0.2,0.3,0.3c0.1,0,0.2,0.1,0.3,0.1C1134,483.4,1134.2,483.4,1134.4,483.3L1134.4,483.3z"/>
		</g>
	</g>
	<g>
		<g>
			<path class="st19" d="M1135.2,487.6C1135.2,487.6,1135.2,487.6,1135.2,487.6c0-0.1,0-0.1,0-0.1c0-0.1-0.1-0.2-0.1-0.2
				c0,0,0,0,0,0c0,0,0,0,0,0c0-0.1-0.1-0.1-0.1-0.2c-0.1-0.1-0.2-0.2-0.3-0.2c-0.1,0-0.2,0-0.2,0c-0.1,0-0.1,0-0.2,0
				c-0.1,0-0.2,0.1-0.3,0.1c-0.1,0.1-0.2,0.1-0.2,0.2c0,0,0,0,0,0c0,0,0,0,0,0c0,0.1-0.1,0.1-0.1,0.2c0,0,0,0,0,0c0,0,0,0.1,0,0.1
				c0,0.2,0,0.3,0,0.5c0,0.1,0.1,0.3,0.2,0.4c0.1,0,0.1,0.1,0.2,0.1c0.1,0.1,0.3,0.1,0.4,0.1c0.1,0,0.2,0,0.3-0.1
				c0.1,0,0.2-0.1,0.3-0.2c0.1-0.1,0.2-0.2,0.2-0.4C1135.3,487.9,1135.3,487.8,1135.2,487.6L1135.2,487.6z"/>
		</g>
	</g>
	<g>
		<g>
			<path class="st19" d="M1116.6,560.8C1116.6,560.8,1116.6,560.8,1116.6,560.8c0,0.1,0,0.2,0,0.3c0,0,0-0.1,0-0.1
				c0,0.1,0,0.2,0,0.3c0,0,0-0.1,0-0.1c0,0.1-0.1,0.2-0.1,0.3c0,0,0-0.1,0.1-0.1c-0.1,0.1-0.1,0.2-0.2,0.3c0,0,0,0,0.1-0.1
				c-0.3,0.1-0.6,0.3-0.9,0.4c0.3,0,0.4,0,0.7-0.2c0.2-0.1,0.2-0.1,0.3-0.2c0,0,0,0,0,0c-0.1,0.1-0.2,0.1-0.3,0.2c0,0,0.1,0,0.1-0.1
				c-0.1,0-0.2,0.1-0.3,0.1c0,0,0,0,0,0c0.2,0,0.3-0.1,0.4-0.2c0.1-0.1,0.3-0.2,0.3-0.4c0.1-0.2,0.1-0.3,0.2-0.5c0-0.2,0-0.3,0-0.5
				c0-0.1-0.1-0.2-0.1-0.3c-0.1-0.2-0.3-0.4-0.5-0.5c-0.1,0-0.2-0.1-0.3-0.1c-0.2-0.1-0.5-0.1-0.7,0c0,0,0,0,0,0
				c-0.1,0-0.2,0.1-0.3,0.1c0,0,0,0,0,0c0,0,0,0-0.1,0c0,0,0,0,0,0c-0.1,0.1-0.2,0.1-0.3,0.2c0,0,0,0,0,0c0,0,0,0,0,0
				c-0.1,0.1-0.1,0.2-0.2,0.3c0,0,0,0,0,0c-0.1,0.2-0.1,0.3-0.2,0.5c0,0.1,0,0.1,0,0.2c0.1-0.2,0.1-0.4,0.2-0.7c0,0,0,0,0,0.1
				c0,0,0,0,0,0c0,0.1-0.1,0.2-0.1,0.3c0,0,0,0,0,0.1c0,0.1,0,0.3-0.1,0.4c0,0,0,0,0,0.1c0,0,0,0,0,0c0,0,0,0,0,0c0,0.1,0,0.2,0,0.3
				c0,0,0,0,0,0.1c0,0,0,0,0,0c0,0.1,0.1,0.2,0.1,0.3c0.1,0.1,0.2,0.3,0.3,0.4c0.1,0.1,0.3,0.2,0.4,0.2c0.1,0,0.2,0,0.3,0
				c0.2,0,0.3,0,0.5-0.1c0.1,0,0.2-0.1,0.3-0.2c0.1-0.1,0.2-0.2,0.3-0.4c0-0.1,0.1-0.2,0.1-0.3
				C1116.7,561.3,1116.7,561.1,1116.6,560.8L1116.6,560.8z"/>
		</g>
	</g>
	<g>
		<g>
			<path class="st19" d="M1121.1,559.4c1.1,0,1.1-1.7,0-1.7C1120,557.7,1120,559.4,1121.1,559.4L1121.1,559.4z"/>
		</g>
	</g>
	<g>
		<g>
			<path class="st19" d="M1143.3,570c0.2,0,0.3,0,0.5-0.1c0.2,0,0.3-0.1,0.4-0.3c0.1-0.1,0.2-0.2,0.3-0.4c0.1-0.1,0.1-0.3,0.1-0.5
				c0-0.1,0-0.2,0-0.3c-0.1-0.2-0.2-0.4-0.3-0.5c-0.1-0.1-0.2-0.1-0.2-0.2c-0.2-0.1-0.4-0.2-0.6-0.2c-0.2,0-0.3,0-0.5,0.1
				c-0.2,0-0.3,0.1-0.4,0.3c-0.1,0.1-0.2,0.2-0.3,0.4c-0.1,0.1-0.1,0.3-0.1,0.5c0,0.1,0,0.2,0,0.3c0.1,0.2,0.2,0.4,0.3,0.5
				c0.1,0.1,0.2,0.1,0.2,0.2C1142.9,569.9,1143.1,570,1143.3,570L1143.3,570z"/>
		</g>
	</g>
	<g>
		<g>
			<path class="st19" d="M1148.4,569.7c1.1,0,1.1-1.8,0-1.8C1147.3,568,1147.3,569.7,1148.4,569.7L1148.4,569.7z"/>
		</g>
	</g>
	<g>
		<g>
			<path class="st19" d="M1149.1,566.7c1.1,0,1.1-1.7,0-1.7C1148,565,1148,566.7,1149.1,566.7L1149.1,566.7z"/>
		</g>
	</g>
	<g>
		<g>
			<path class="st19" d="M1018.9,573.1c0,0,0.1,0,0.1,0c0,0,0,0,0,0c0.1,0,0.1,0,0.2,0.1c0.1,0.1,0.2,0.1,0.3,0.1c0.1,0,0.2,0,0.3,0
				c0.1,0,0.1,0,0.2,0c0.1,0,0.1,0,0.2-0.1c0.1,0,0.1,0,0.2-0.1c-0.2,0.1-0.4,0.1-0.6,0.2c0,0,0.1,0,0.1,0c0,0,0,0,0.1,0
				c0,0,0,0,0,0c0.1,0,0.3,0,0.4-0.1c0.1,0,0.3-0.1,0.3-0.2c0.1-0.1,0.2-0.3,0.3-0.5c0-0.1,0-0.2,0-0.3c0-0.1,0-0.2,0-0.3
				c0-0.1-0.1-0.2-0.1-0.3c-0.1-0.1-0.1-0.2-0.2-0.2c0,0,0,0,0,0c0,0-0.1-0.1-0.1-0.1c0.1,0.1,0.1,0.2,0.2,0.2c0,0,0,0,0,0
				c0.1,0.2,0.1,0.4,0.2,0.6c0,0,0,0,0,0c0-0.1,0-0.2,0-0.3c0,0,0,0,0,0c0-0.1-0.1-0.2-0.1-0.3c-0.1-0.1-0.1-0.2-0.2-0.3
				c-0.1-0.1-0.2-0.1-0.3-0.2c0,0,0,0,0,0c0,0-0.1,0-0.1-0.1c-0.1-0.1-0.3-0.1-0.5-0.1c-0.2,0-0.3,0-0.5,0c-0.2,0-0.3,0.1-0.4,0.2
				c-0.1,0.1-0.2,0.2-0.3,0.4c0,0.1-0.1,0.2-0.1,0.3c-0.1,0.2-0.1,0.4,0,0.7c0,0.1,0.1,0.2,0.1,0.3
				C1018.6,572.8,1018.8,572.9,1018.9,573.1L1018.9,573.1z"/>
		</g>
	</g>
	<g>
		<g>
			<path class="st19" d="M1024.4,576.6c1,0,1-1.6,0-1.6C1023.4,575.1,1023.4,576.6,1024.4,576.6L1024.4,576.6z"/>
		</g>
	</g>
	<g>
		<g>
			<path class="st19" d="M1029.8,554.5c1.7,0,1.7-2.7,0-2.7C1028,551.8,1028,554.5,1029.8,554.5L1029.8,554.5z"/>
		</g>
	</g>
	<g>
		<g>
			<path class="st19" d="M1034.4,554c1.1,0,1.1-1.7,0-1.7C1033.3,552.3,1033.3,554,1034.4,554L1034.4,554z"/>
		</g>
	</g>
	<g>
		<g>
			<path class="st19" d="M1032.4,549.3c1,0,1-1.5,0-1.5C1031.4,547.8,1031.4,549.3,1032.4,549.3L1032.4,549.3z"/>
		</g>
	</g>
	<g>
		<g>
			<path class="st19" d="M1035.8,539.2c1.4,0,1.4-2.1,0-2.1C1034.4,537.1,1034.4,539.2,1035.8,539.2L1035.8,539.2z"/>
		</g>
	</g>
	<g>
		<g>
			<path class="st19" d="M1106.5,647.9c-0.1,0-0.1,0.1-0.2,0.1c0.4-0.1,0.9-0.2,1.3-0.3c0,0,0,0,0,0c-0.2-0.1-0.4-0.1-0.5,0
				C1106.9,647.7,1106.7,647.7,1106.5,647.9c0,0-0.1,0.1-0.2,0.1c-0.2,0.2-0.3,0.4-0.3,0.6c0,0,0,0.1,0,0.1c-0.1,0.2-0.1,0.5,0,0.7
				c0.1,0.2,0.2,0.4,0.3,0.6c0.2,0.2,0.4,0.3,0.6,0.3c0.2,0.1,0.5,0.1,0.7,0c0,0,0.1,0,0.1,0c0.2,0,0.3-0.1,0.5-0.2
				c0.1-0.1,0.3-0.2,0.3-0.4c0-0.1,0.1-0.2,0.1-0.3c0.1-0.2,0.1-0.5,0-0.7c0,0,0,0,0,0c-0.1,0.4-0.2,0.9-0.3,1.3
				c0-0.1,0.1-0.1,0.1-0.2c0.1-0.1,0.2-0.3,0.3-0.4c0.1-0.2,0.1-0.3,0.1-0.5c0-0.2,0-0.3-0.1-0.5c-0.1-0.2-0.1-0.3-0.3-0.4
				c-0.1-0.1-0.2-0.1-0.3-0.2c-0.2-0.1-0.4-0.2-0.7-0.2c-0.1,0-0.2,0-0.3,0C1106.8,647.6,1106.7,647.8,1106.5,647.9L1106.5,647.9z"
				/>
		</g>
	</g>
	<g>
		<g>
			<path class="st19" d="M1111.8,652.3c-0.1,0-0.1,0-0.2,0c0,0,0,0,0,0c-0.1,0-0.1,0.1-0.2,0.1c0,0,0,0,0,0c0,0,0,0,0,0
				c0,0,0,0-0.1,0c-0.1,0.1-0.2,0.2-0.3,0.3c-0.1,0.1-0.1,0.3-0.1,0.4c0,0.1,0,0.3,0.1,0.4c0.1,0.1,0.2,0.2,0.3,0.3
				c0.1,0.1,0.2,0.1,0.3,0.1c0.1,0,0.1,0,0.2,0c0.2,0,0.3,0,0.5,0c0.2,0,0.3-0.1,0.4-0.2c0-0.1,0.1-0.1,0.1-0.2
				c0.1-0.1,0.1-0.3,0.1-0.5c0-0.1,0-0.2-0.1-0.4c0-0.1-0.1-0.2-0.2-0.3c-0.1-0.1-0.2-0.2-0.4-0.2
				C1112.2,652.3,1112,652.3,1111.8,652.3L1111.8,652.3z"/>
		</g>
	</g>
</g>
</svg>
